#N canvas 673 168 1133 983 12;
#X obj 100 100 cnv 15 550 120 empty \$0-mycnv_r empty 20 12 0 14 -204800
-66577 0;
#X obj 113 180 hsl 512 30 0 1 0 0 empty empty pos -2 -8 0 12 -262144
-1 -1 13000 0;
#X obj 107 257 t f b, f 9;
#X obj 108 335 *;
#X obj 108 390 line~;
#X obj 108 360 pack f 5;
#X obj 173 293 array size \$2;
#X obj 215 156 nbx 5 14 -1e+37 1e+37 0 0 empty \$0-cutoff_s empty 0
-8 0 12 -262144 -1 -1 6363.64 256;
#X obj 225 121 moonlib/mknob 30 100 0 15000 0 0 \$0-cutoff_s \$0-cutoff_r
cutoff -2 -6 0 12 -262144 -1 -1 4200 1;
#X obj 105 593 bob~;
#X obj 126 552 line~;
#X obj 142 523 pack 0 5;
#X obj 206 550 line~;
#X obj 247 525 pack 0 5;
#X obj 301 119 moonlib/mknob 30 100 0 4 0 0 \$0-resonz_s \$0-resonz_r
resonz -2 -6 0 13 -262144 -1 -1 3150 1;
#X obj 288 157 nbx 5 14 -1e+37 1e+37 0 0 empty \$0-resonz_s empty 0
-8 0 12 -262144 -1 -1 1.27273 256;
#X obj 259 500 r \$0-resonz_s;
#X obj 712 90 loadbang;
#X obj 184 116 tgl 20 0 \$0-on_s empty on 0 -7 0 13 -262144 -1 -1 1
1;
#X obj 230 367 r \$0-on_s;
#X obj 96 784 pdkvabs/dkcospan~ 0;
#X obj 374 118 moonlib/mknob 30 100 -1 1 0 0 \$0-pan_s \$0-pan_r pan
-2 -6 0 13 -262144 -1 -1 0 1;
#X obj 428 157 nbx 5 14 -1e+37 1e+37 0 0 empty \$0-rev1_s empty 0 -8
0 12 -262144 -1 -1 1.71717 256;
#X obj 253 614 r \$0-pan_s;
#X obj 106 645 rev1~;
#X obj 436 116 moonlib/mknob 30 100 0 5 0 0 \$0-rev1_s \$0-rev1_r reverb
-2 -6 0 13 -262144 -1 -1 3400 1;
#X obj 360 156 nbx 5 14 -1e+37 1e+37 0 0 empty \$0-pan_s empty 0 -8
0 12 -262144 -1 -1 -1 256;
#X obj 564 157 nbx 5 14 -1e+37 1e+37 0 0 empty \$0-vol_s empty 0 -8
0 12 -262144 -1 -1 0.689261 256;
#X obj 578 117 moonlib/mknob 30 100 0.01 1 1 0 \$0-vol_s \$0-vol_r
vol -2 -6 0 13 -262144 -1 -1 9100 1;
#X obj 151 602 r \$0-rev1_s;
#X obj 96 685 pdkvabs/dkbitred~;
#X obj 495 155 nbx 5 14 -1e+37 1e+37 0 0 empty \$0-br_s empty 0 -8
0 12 -262144 -1 -1 32 256;
#X obj 503 118 moonlib/mknob 30 100 1 32 0 0 \$0-br_s \$0-br_r bitres
-2 -6 0 13 -262144 -1 -1 9900 1;
#X obj 265 651 r \$0-br_s;
#X obj 82 824 throw~ asyncgrnenvL;
#X obj 253 827 throw~ asyncgrnenvR;
#X obj 127 145 hradio 20 1 0 4 \$0-array_s \$0-array_r array 0 -8 0
10 -262144 -1 -1 0;
#X obj 712 115 pack \$0 \$1;
#X obj 359 273 r \$0-array_s;
#X obj 359 301 makefilename %d-asyncarr;
#X msg 359 326 set \$1;
#X obj 109 446 pdkvabs/dkasyncgrn~ \$2 16;
#X msg 710 176 \; \$1-resonz_r 2 \; \$1-cutoff_r 15000 \; \$1-mycnv_r
label \$2 \; \$1-br_r 32 \; \$1-pan_r 0 \; \$1-rev1_r 1 \; \$1-vol_r
1 \; \$1-array_r \$2 \;;
#X obj 96 710 *~;
#X obj 368 719 line~;
#X obj 383 684 pack 0 5;
#X obj 391 632 r \$0-vol_s;
#X obj 142 498 r \$0-cutoff_s;
#X connect 1 0 2 0;
#X connect 2 0 3 0;
#X connect 2 1 6 0;
#X connect 3 0 5 0;
#X connect 4 0 41 0;
#X connect 5 0 4 0;
#X connect 6 0 3 1;
#X connect 9 0 24 0;
#X connect 10 0 9 1;
#X connect 11 0 10 0;
#X connect 12 0 9 2;
#X connect 13 0 12 0;
#X connect 16 0 13 0;
#X connect 17 0 37 0;
#X connect 19 0 41 1;
#X connect 20 0 34 0;
#X connect 20 1 35 0;
#X connect 23 0 20 1;
#X connect 24 0 30 0;
#X connect 29 0 24 1;
#X connect 30 0 43 0;
#X connect 33 0 30 1;
#X connect 37 0 42 0;
#X connect 38 0 39 0;
#X connect 39 0 6 1;
#X connect 39 0 40 0;
#X connect 40 0 41 2;
#X connect 41 0 9 0;
#X connect 43 0 20 0;
#X connect 44 0 43 1;
#X connect 45 0 44 0;
#X connect 46 0 45 0;
#X connect 47 0 11 0;
#X coords 0 -1 1 1 550 120 1 100 100;
