#N canvas 657 168 1133 983 12;
#X obj 100 100 cnv 15 550 120 empty \$0-mycnv_r empty 20 12 0 14 -204800
-66577 0;
#X obj 113 180 hsl 512 30 0 1 0 0 \$1-pos_s \$1-pos_r pos -2 -8 0 12
-262144 -1 -1 14800 0;
#X obj 107 257 t f b, f 9;
#X obj 108 335 *;
#X obj 108 390 line~;
#X obj 108 360 pack f 5;
#X obj 234 156 nbx 5 14 -1e+37 1e+37 0 0 empty \$1-cutoff_s empty 0
-8 0 12 -262144 -1 -1 15000 256;
#X obj 244 121 moonlib/mknob 30 100 0 15000 0 0 \$1-cutoff_s \$1-cutoff_r
cutoff -2 -6 0 12 -262144 -1 -1 9900 1;
#X obj 105 593 bob~;
#X obj 126 552 line~;
#X obj 142 523 pack 0 5;
#X obj 206 550 line~;
#X obj 247 525 pack 0 5;
#X obj 320 119 moonlib/mknob 30 100 0 4 0 0 \$1-resonz_s \$1-resonz_r
resonz -2 -6 0 13 -262144 -1 -1 4950 1;
#X obj 307 157 nbx 5 14 -1e+37 1e+37 0 0 empty \$1-resonz_s empty 0
-8 0 12 -262144 -1 -1 2 256;
#X obj 712 90 loadbang;
#X obj 111 114 tgl 20 0 \$1-on_s empty on 0 -7 0 13 -262144 -1 -1 0
1;
#X obj 96 784 pdkvabs/dkcospan~ 0;
#X obj 393 118 moonlib/mknob 30 100 -1 1 0 0 \$1-pan_s \$1-pan_r pan
-2 -6 0 13 -262144 -1 -1 4950 1;
#X obj 447 157 nbx 5 14 -1e+37 1e+37 0 0 empty \$1-rev1_s empty 0 -8
0 12 -262144 -1 -1 1 256;
#X obj 106 645 rev1~;
#X obj 455 116 moonlib/mknob 30 100 0 5 0 0 \$1-rev1_s \$1-rev1_r reverb
-2 -6 0 13 -262144 -1 -1 1980 1;
#X obj 379 156 nbx 5 14 -1e+37 1e+37 0 0 empty \$1-pan_s empty 0 -8
0 12 -262144 -1 -1 0 256;
#X obj 583 157 nbx 5 14 -1e+37 1e+37 0 0 empty \$1-vol_s empty 0 -8
0 12 -262144 -1 -1 1 256;
#X obj 597 117 moonlib/mknob 30 100 0.01 1 1 0 \$1-vol_s \$1-vol_r
vol -2 -6 0 13 -262144 -1 -1 9900 1;
#X obj 96 685 pdkvabs/dkbitred~;
#X obj 514 155 nbx 5 14 -1e+37 1e+37 0 0 empty \$1-br_s empty 0 -8
0 12 -262144 -1 -1 32 256;
#X obj 522 118 moonlib/mknob 30 100 1 32 0 0 \$1-br_s \$1-br_r bitres
-2 -6 0 13 -262144 -1 -1 9900 1;
#X obj 265 651 r \$0-br_s;
#X obj 82 824 throw~ asyncgrnenvL;
#X obj 253 827 throw~ asyncgrnenvR;
#X obj 149 115 hradio 20 1 0 4 \$1-array_s \$1-array_r array 0 -8 0
10 -262144 -1 -1 0;
#X obj 405 317 makefilename %d-asyncarr;
#X msg 405 342 set \$1;
#X obj 96 710 *~;
#X obj 368 719 line~;
#X obj 383 684 pack 0 5;
#X obj 405 289 r \$1-array_s;
#X obj 230 367 r \$1-on_s;
#X obj 259 500 r \$1-resonz_s;
#X obj 391 632 r \$1-vol_s;
#X obj 253 614 r \$1-pan_s;
#X obj 151 602 r \$1-rev1_s;
#X obj 142 498 r \$1-cutoff_s;
#X obj 109 446 pdkvabs/dkasyncgrn~ \$1-asyncarr 32;
#X obj 712 115 \$1;
#X msg 710 176 \; \$1-resonz_r 2 \; \$1-cutoff_r 15000 \; \$1-br_r
32 \; \$1-pan_r 0 \; \$1-rev1_r 1 \; \$1-vol_r 1 \; \$1-array_r \$1
\;;
#X obj 173 293 array size \$1-asyncarr;
#X obj 145 151 nbx 5 20 -1e+37 1e+37 0 0 empty \$1-pos_s empty 0 -8
0 15 -262144 -1 -1 0 256;
#X connect 1 0 2 0;
#X connect 2 0 3 0;
#X connect 2 1 47 0;
#X connect 3 0 5 0;
#X connect 4 0 44 0;
#X connect 5 0 4 0;
#X connect 8 0 20 0;
#X connect 9 0 8 1;
#X connect 10 0 9 0;
#X connect 11 0 8 2;
#X connect 12 0 11 0;
#X connect 15 0 45 0;
#X connect 17 0 29 0;
#X connect 17 1 30 0;
#X connect 20 0 25 0;
#X connect 25 0 34 0;
#X connect 28 0 25 1;
#X connect 32 0 33 0;
#X connect 32 0 47 1;
#X connect 33 0 44 2;
#X connect 34 0 17 0;
#X connect 35 0 34 1;
#X connect 36 0 35 0;
#X connect 37 0 32 0;
#X connect 38 0 44 1;
#X connect 39 0 12 0;
#X connect 40 0 36 0;
#X connect 41 0 17 1;
#X connect 42 0 20 1;
#X connect 43 0 10 0;
#X connect 44 0 8 0;
#X connect 45 0 46 0;
#X connect 47 0 3 1;
#X coords 0 -1 1 1 550 120 1 100 100;
